<svg xmlns="http://www.w3.org/2000/svg" xmlns:xlink="http://www.w3.org/1999/xlink" width="75.7" height="73.69" viewBox="0 0 75.7 73.69"><defs><clipPath id="a"><path d="M43.635,2.05V13.242c12.831,1.81,22.71,12.522,22.71,25.561a25.756,25.756,0,0,1-1.817,9.382l9.841,5.651A35.739,35.739,0,0,0,77.7,38.8C77.7,19.669,62.749,3.9,43.635,2.05ZM39.85,64.659c-14.648,0-26.5-11.561-26.5-25.856,0-13.039,9.879-23.751,22.71-25.561V2.05C16.913,3.9,2,19.632,2,38.8,2,59.192,18.919,75.74,39.812,75.74A38.057,38.057,0,0,0,70.32,60.633l-9.841-5.651A26.553,26.553,0,0,1,39.85,64.659Z" transform="translate(164.65 805.258)" fill="#2965db"/></clipPath></defs><g transform="translate(-174 -773)"><path d="M27.6,25.576V22.566l-4.4,4.3,4.4,4.3V28.155h9.734v-2.58Zm5.335,7.309H23.2v2.58h9.734v3.009l4.4-4.3-4.4-4.3ZM15.25,8.379a3.5,3.5,0,0,0,3.533-3.439,3.535,3.535,0,0,0-7.067,0A3.5,3.5,0,0,0,15.25,8.379ZM8.625,14.226,3.767,38.474h3.71l3.092-13.758,3.8,3.439V38.474H17.9V25.49l-3.622-3.525,1.06-5.159a12.457,12.457,0,0,0,9.628,4.471V17.837a9.111,9.111,0,0,1-7.685-4.213L15.6,10.872a3.467,3.467,0,0,0-3-1.634,3.629,3.629,0,0,0-1.325.258L2,13.194v8.083H5.533V15.516l3.092-1.29" transform="translate(192 790.5)" fill="#2965db"/><path d="M43.635,2.05V13.242c12.831,1.81,22.71,12.522,22.71,25.561a25.756,25.756,0,0,1-1.817,9.382l9.841,5.651A35.739,35.739,0,0,0,77.7,38.8C77.7,19.669,62.749,3.9,43.635,2.05ZM39.85,64.659c-14.648,0-26.5-11.561-26.5-25.856,0-13.039,9.879-23.751,22.71-25.561V2.05C16.913,3.9,2,19.632,2,38.8,2,59.192,18.919,75.74,39.812,75.74A38.057,38.057,0,0,0,70.32,60.633l-9.841-5.651A26.553,26.553,0,0,1,39.85,64.659Z" transform="translate(172 770.95)" fill="#1c3f83"/><g transform="translate(7.35 -34.309)" clip-path="url(#a)"><rect width="49" height="100" transform="translate(205 794)" fill="#2965db"/></g></g></svg>