<svg xmlns="http://www.w3.org/2000/svg" xmlns:xlink="http://www.w3.org/1999/xlink" width="101.324" height="73.69" viewBox="0 0 101.324 73.69"><defs><clipPath id="a"><path d="M88.507,22.423H74.69V4H10.211A9.238,9.238,0,0,0,1,13.211V63.873h9.211a13.817,13.817,0,1,0,27.634,0H65.479a13.817,13.817,0,1,0,27.634,0h9.211V40.845ZM24.028,70.782a6.908,6.908,0,1,1,6.908-6.908A6.9,6.9,0,0,1,24.028,70.782ZM86.2,29.331l9.027,11.514H74.69V29.331ZM79.3,70.782A6.908,6.908,0,1,1,86.2,63.873,6.9,6.9,0,0,1,79.3,70.782Z" transform="translate(-1 -4)" fill="#ff0435"/></clipPath></defs><g transform="translate(-575 -773)"><g transform="translate(-385.676 -111.7)"><path d="M88.507,22.422H74.69V4H10.211A9.238,9.238,0,0,0,1,13.211V63.873h9.211a13.817,13.817,0,1,0,27.634,0H65.479a13.817,13.817,0,1,0,27.634,0h9.211V40.845ZM24.028,70.782a6.908,6.908,0,1,1,6.908-6.908A6.9,6.9,0,0,1,24.028,70.782ZM86.2,29.331l9.027,11.514H74.69V29.331ZM79.3,70.782A6.908,6.908,0,1,1,86.2,63.873,6.9,6.9,0,0,1,79.3,70.782Z" transform="translate(959.676 880.7)" fill="#1c3f83"/><g transform="translate(960.676 884.7)" clip-path="url(#a)"><rect width="94.367" height="97.484" transform="translate(45.14 -11.897)" fill="#2965db"/></g></g></g></svg>