<svg xmlns="http://www.w3.org/2000/svg" width="324.851" height="60.636" viewBox="0 0 324.851 60.636"><g transform="translate(4559 5475)"><path d="M4041.23,114.964l-.114-37.6h-5.335l39.178-22.7,114.835,5.42,13.55,8.807-97.9,8.13V115.3l-64.217-.339" transform="translate(-8594.781 -5529.664)" fill="#1c3f83"/><path d="M4108.33,82.043l21-2.71v26.761l-21,7.452Z" transform="translate(-8593.604 -5529.263)" fill="#1c3f83"/><path d="M4108.33,81.614l17.445-2.281v22.522l-17.445,6.272Z" transform="translate(-8570.229 -5531.973)" fill="#1c3f83"/><path d="M4108.5,80.556l13.211-1.423V98.149l-13.38,5.239Z" transform="translate(-8550.413 -5533.67)" fill="#1c3f83"/><path d="M4108.33,80.989l11.518-1.155.135,14.939L4108.2,99.244Z" transform="translate(-8534.663 -5535.691)" fill="#1c3f83"/><path d="M4108.67,80.848l7.622-.948-.339,11.619-7.384,3.218Z" transform="translate(-8521.615 -5536.876)" fill="#1c3f83"/><path d="M4108.34,80.527l6.944-1.194-.508,9.993-6.606,2.541Z" transform="translate(-8512.137 -5537.901)" fill="#1c3f83"/><path d="M4108.34,80.313l4.742-.98-.948,7.893-4.269,2.642Z" transform="translate(-8503.842 -5538.917)" fill="#1c3f83"/><path d="M4077.88,56.75l9.782,1.143,27.565,16.387-11.051.508Z" transform="translate(-8594.097 -5529.63)" fill="#fff"/><path d="M4090.14,57.857l11.6.018,25.7,15.516-9.572.553Z" transform="translate(-8593.898 -5529.612)" fill="#fff"/><path d="M4104.71,57.857l7.594.526L4137.23,73.1l-7.966.018Z" transform="translate(-8593.662 -5529.612)" fill="#fff"/><path d="M4114.38,58l24.008,14.735,6.733-.127-22.993-14.037Z" transform="translate(-8593.505 -5529.609)" fill="#fff"/><path d="M4130.03,59.2l21.531,12.7-5.335.381L4124.25,58.688Z" transform="translate(-8593.344 -5529.598)" fill="#fff"/><path d="M4131.33,58.857l5.886.526L4157.8,71.324l-4.764.318Z" transform="translate(-8593.229 -5529.595)" fill="#fff"/><path d="M4144.58,59.927l18.355,10.914-4.224.159L4139.25,59.25Z" transform="translate(-8593.102 -5529.589)" fill="#fff"/><path d="M4145.75,59.812h2.858l19.245,10.861h-3.747Z" transform="translate(-8592.995 -5529.58)" fill="#fff"/><path d="M4151.5,59.812l3.62.445,17.514,9.914-3.478-.006Z" transform="translate(-8593.918 -5529.58)" fill="#fff"/><path d="M82.719,41.153a6.472,6.472,0,0,1-2.31-1.439,6.717,6.717,0,0,1-1.553-2.372,8.807,8.807,0,0,1-.567-3.287,8.522,8.522,0,0,1,.588-3.287,7.01,7.01,0,0,1,1.586-2.383,6.531,6.531,0,0,1,2.309-1.449,7.931,7.931,0,0,1,2.762-.483,8.135,8.135,0,0,1,2.813.483,6.409,6.409,0,0,1,2.31,1.449,6.839,6.839,0,0,1,1.554,2.383,8.81,8.81,0,0,1,.567,3.287,8.94,8.94,0,0,1-.557,3.287A6.752,6.752,0,0,1,90.7,39.713a6.261,6.261,0,0,1-2.3,1.439,8.352,8.352,0,0,1-2.867.482A8.136,8.136,0,0,1,82.719,41.153ZM83.9,29.676a3.466,3.466,0,0,0-1.208.966,4.394,4.394,0,0,0-.756,1.491,7.2,7.2,0,0,0,0,3.854,4.4,4.4,0,0,0,.756,1.48,3.338,3.338,0,0,0,1.208.955,4.128,4.128,0,0,0,3.265,0,3.3,3.3,0,0,0,1.218-.955,4.4,4.4,0,0,0,.756-1.48,6.6,6.6,0,0,0,.263-1.932,6.7,6.7,0,0,0-.263-1.942,4.386,4.386,0,0,0-.756-1.491,3.316,3.316,0,0,0-1.218-.956,3.835,3.835,0,0,0-1.627-.336A3.7,3.7,0,0,0,83.9,29.676ZM56.931,41.52a11.083,11.083,0,0,1-1.376-.284,7.844,7.844,0,0,1-1.029-.357,7.94,7.94,0,0,1-.724-.356l.924-2.6a8.2,8.2,0,0,0,1.606.641,8.327,8.327,0,0,0,2.341.284,4.749,4.749,0,0,0,1.145-.115,2.116,2.116,0,0,0,.725-.315,1.059,1.059,0,0,0,.378-.472,1.681,1.681,0,0,0,.105-.609,1.406,1.406,0,0,0-.672-1.186,9.616,9.616,0,0,0-2.31-1.019q-.714-.252-1.427-.578a5.25,5.25,0,0,1-1.282-.819,3.894,3.894,0,0,1-.923-1.2,3.741,3.741,0,0,1-.357-1.711A4.24,4.24,0,0,1,54.432,29,3.887,3.887,0,0,1,55.5,27.628a4.892,4.892,0,0,1,1.68-.871,7.524,7.524,0,0,1,2.226-.305,8.9,8.9,0,0,1,4.3,1.008l-.945,2.583a8.957,8.957,0,0,0-1.354-.556,5.861,5.861,0,0,0-1.8-.241,3.3,3.3,0,0,0-1.69.325,1.1,1.1,0,0,0-.515,1,1.151,1.151,0,0,0,.189.671,1.845,1.845,0,0,0,.535.494,4.748,4.748,0,0,0,.8.4q.451.178,1,.367,1.134.421,1.975.83a5.25,5.25,0,0,1,1.4.956,3.449,3.449,0,0,1,.83,1.281,5.155,5.155,0,0,1,.273,1.785,3.793,3.793,0,0,1-1.427,3.161,6.9,6.9,0,0,1-4.306,1.123A11.867,11.867,0,0,1,56.931,41.52Zm71.473-.41a6.214,6.214,0,0,1-2.279-1.47,6.568,6.568,0,0,1-1.46-2.373,9.321,9.321,0,0,1-.514-3.213,8.6,8.6,0,0,1,.567-3.234,6.977,6.977,0,0,1,1.553-2.384,6.564,6.564,0,0,1,2.321-1.481,7.982,7.982,0,0,1,2.845-.5,11.507,11.507,0,0,1,1.859.137,11.717,11.717,0,0,1,1.428.315,6.634,6.634,0,0,1,.987.367c.258.126.445.224.556.294l-.945,2.625a8.534,8.534,0,0,0-1.544-.62,6.58,6.58,0,0,0-1.9-.262,3.994,3.994,0,0,0-3.307,1.27,5.413,5.413,0,0,0-1.018,3.476A6.969,6.969,0,0,0,127.806,36a4.255,4.255,0,0,0,.756,1.5,3.411,3.411,0,0,0,1.26.977,4.205,4.205,0,0,0,1.764.347q.545,0,.934-.022a4.318,4.318,0,0,0,.682-.084V33.656h3.276v7.2a12.279,12.279,0,0,1-1.89.493,16.55,16.55,0,0,1-3.213.263A8.351,8.351,0,0,1,128.4,41.11Zm11.12.231V26.788h9.828v2.75H142.8V32.4h5.817v2.687H142.8V38.59h7.034v2.751Zm-19.595,0q-.243-.759-.523-1.558l-.556-1.592h-5.684q-.275.8-.553,1.6t-.516,1.554h-3.4q.822-2.352,1.559-4.347t1.443-3.759q.706-1.764,1.39-3.35t1.422-3.1h3.1q.718,1.512,1.414,3.1t1.4,3.35q.707,1.764,1.445,3.759t1.561,4.347Zm-4.257-10.393q-.211.545-.481,1.261t-.6,1.575q-.333.859-.678,1.8h4.162q-.333-.946-.647-1.809t-.595-1.578l-.494-1.26c-.141-.364-.257-.648-.343-.855C115.92,30.3,115.814,30.584,115.673,30.948Zm-11.92,10.393q-.4-.714-.812-1.449t-.843-1.428q-.432-.693-.853-1.312t-.843-1.124H98.784v5.314H95.508V27a18.811,18.811,0,0,1,2.216-.294q1.143-.084,2.048-.084a9.021,9.021,0,0,1,5.018,1.165,4.05,4.05,0,0,1,1.743,3.623,4.1,4.1,0,0,1-.7,2.489,4.626,4.626,0,0,1-2.026,1.5q.44.547.923,1.25t.956,1.47q.473.767.913,1.6t.819,1.628ZM99.32,29.435c-.189.013-.367.028-.535.041v3.948h.924a5.582,5.582,0,0,0,2.646-.462,1.67,1.67,0,0,0,.8-1.575,1.6,1.6,0,0,0-.808-1.523,5,5,0,0,0-2.383-.452Q99.6,29.413,99.32,29.435ZM69.636,41.341V29.581H65.247V26.788H77.3v2.793H72.912v11.76Zm-26.607,0V26.788h3.276V41.341Zm-6.111,0q-1.407-2.5-3.045-4.936a50.4,50.4,0,0,0-3.487-4.6v9.535H27.153V26.788H29.82q.694.693,1.534,1.7t1.711,2.152q.872,1.145,1.732,2.373t1.617,2.362V26.788h3.255V41.341Zm-16.4,0V26.788h3.276V41.341Zm-6.111,0q-.063-2.121-.168-4.621t-.315-5.04q-.379.883-.842,1.953t-.916,2.142q-.454,1.072-.875,2.048t-.716,1.669H8.285q-.3-.693-.716-1.669t-.874-2.048q-.454-1.071-.916-2.142t-.843-1.953q-.209,2.542-.315,5.04t-.167,4.621H1.26q.084-1.723.2-3.676t.252-3.9q.136-1.943.315-3.738t.388-3.245H5.544q.379.693.874,1.711t1.031,2.2q.537,1.187,1.064,2.426L9.5,35.461q.464-1.091.99-2.331T11.555,30.7q.537-1.185,1.032-2.2t.874-1.711h2.982q.211,1.449.389,3.245t.315,3.738q.136,1.943.252,3.9t.2,3.676ZM33.222,19.811a6.466,6.466,0,0,1-2.309-1.438A6.731,6.731,0,0,1,29.358,16a8.805,8.805,0,0,1-.567-3.286,8.536,8.536,0,0,1,.588-3.287,7,7,0,0,1,1.586-2.383,6.5,6.5,0,0,1,2.31-1.449,7.926,7.926,0,0,1,2.761-.483,8.14,8.14,0,0,1,2.814.483A6.381,6.381,0,0,1,41.16,7.043a6.831,6.831,0,0,1,1.554,2.383,8.807,8.807,0,0,1,.567,3.287A8.958,8.958,0,0,1,42.725,16,6.766,6.766,0,0,1,41.2,18.373a6.252,6.252,0,0,1-2.3,1.438,8.349,8.349,0,0,1-2.867.483A8.14,8.14,0,0,1,33.222,19.811ZM34.4,8.335A3.446,3.446,0,0,0,33.19,9.3a4.418,4.418,0,0,0-.756,1.491,6.654,6.654,0,0,0-.262,1.921,6.627,6.627,0,0,0,.262,1.931,4.431,4.431,0,0,0,.756,1.48,3.35,3.35,0,0,0,1.208.956,4.138,4.138,0,0,0,3.265,0,3.326,3.326,0,0,0,1.219-.956,4.431,4.431,0,0,0,.756-1.48,6.627,6.627,0,0,0,.262-1.931,6.739,6.739,0,0,0-.262-1.943,4.413,4.413,0,0,0-.756-1.49,3.326,3.326,0,0,0-1.219-.956,3.818,3.818,0,0,0-1.627-.336A3.7,3.7,0,0,0,34.4,8.335ZM62.937,20.116a16.913,16.913,0,0,1-2.31-.305V5.636a19.5,19.5,0,0,1,2.362-.284q1.229-.073,2.111-.073a12.753,12.753,0,0,1,3.392.419,6.941,6.941,0,0,1,2.615,1.323,5.876,5.876,0,0,1,1.679,2.31,8.742,8.742,0,0,1,.589,3.381,8.5,8.5,0,0,1-.589,3.3,6.107,6.107,0,0,1-1.67,2.331,7.122,7.122,0,0,1-2.635,1.386A12.224,12.224,0,0,1,65,20.189Q64.112,20.189,62.937,20.116ZM64.575,8.083a6.415,6.415,0,0,0-.672.052v9.2c.154.013.333.024.535.031s.445.011.725.011a4.832,4.832,0,0,0,3.644-1.239,4.746,4.746,0,0,0,1.186-3.423,4.8,4.8,0,0,0-1.134-3.465,4.8,4.8,0,0,0-3.591-1.176Q64.932,8.072,64.575,8.083ZM4.147,20.116a16.933,16.933,0,0,1-2.467-.347V5.657a20.924,20.924,0,0,1,2.205-.284q1.2-.094,2.226-.094a15.136,15.136,0,0,1,2.552.2,6.042,6.042,0,0,1,2.005.683,3.567,3.567,0,0,1,1.313,1.27,3.718,3.718,0,0,1,.472,1.943,3.083,3.083,0,0,1-1.68,2.75,3.437,3.437,0,0,1,1.89,1.428,4.11,4.11,0,0,1,.5,2.037,3.912,3.912,0,0,1-1.67,3.444,8.754,8.754,0,0,1-4.966,1.155Q5.334,20.189,4.147,20.116Zm.725-2.7c.238.028.5.05.778.063s.588.022.923.022a5.678,5.678,0,0,0,2.373-.42,1.557,1.557,0,0,0,.9-1.554,1.522,1.522,0,0,0-.756-1.438,4.427,4.427,0,0,0-2.163-.43H4.872Zm.861-9.481c-.322.007-.609.024-.861.053v3.171h1.6a4.441,4.441,0,0,0,2.163-.389,1.345,1.345,0,0,0,.651-1.249A1.286,1.286,0,0,0,8.61,8.282a4.327,4.327,0,0,0-1.975-.356C6.356,7.925,6.055,7.928,5.733,7.935ZM111.636,20V14.477q-1.428-2.226-2.72-4.452t-2.489-4.578h3.8q.671,1.508,1.446,3t1.658,2.974q.883-1.486,1.681-2.974t1.472-3H120.1Q118.9,7.8,117.621,10t-2.709,4.431V20Zm-6.91,0q-.243-.759-.523-1.558t-.557-1.592H97.962l-.553,1.6q-.277.8-.516,1.553h-3.4q.822-2.352,1.559-4.347t1.443-3.758q.706-1.764,1.391-3.35t1.422-3.1h3.105q.717,1.512,1.414,3.1t1.4,3.35q.706,1.763,1.444,3.758T108.234,20ZM100.469,9.607q-.211.545-.481,1.261t-.6,1.575q-.333.86-.678,1.8h4.162q-.333-.946-.647-1.809t-.595-1.578q-.282-.715-.494-1.261t-.344-.854Q100.68,9.06,100.469,9.607ZM86.945,20q-.734-2.016-1.426-4.231t-1.363-4.441q-.672,2.225-1.346,4.441T81.4,20H78.409q-1.118-3.38-2.077-7.14t-1.7-7.413h3.549q.211,1.239.464,2.573t.527,2.677q.274,1.343.56,2.6t.58,2.331q.379-1.029.736-2.184t.695-2.309q.336-1.156.621-2.227T82.881,7h2.793q.251.861.555,1.942t.651,2.236q.346,1.156.7,2.31t.692,2.142q.274-1.071.559-2.331t.538-2.6q.252-1.345.5-2.677t.454-2.573h3.4q-.74,3.654-1.7,7.413T89.942,20Zm-31.7,0q-.243-.759-.522-1.558T54.17,16.85H48.487l-.553,1.6q-.277.8-.516,1.553h-3.4q.821-2.352,1.559-4.347t1.443-3.758q.7-1.764,1.39-3.35t1.422-3.1h3.106q.717,1.512,1.413,3.1t1.4,3.35q.707,1.763,1.445,3.758T58.758,20ZM50.993,9.607q-.212.545-.482,1.261t-.6,1.575q-.332.86-.677,1.8h4.162q-.335-.946-.647-1.809t-.595-1.578q-.282-.715-.495-1.261t-.343-.854Q51.2,9.06,50.993,9.607ZM24.037,20q-.4-.714-.812-1.449t-.843-1.427q-.432-.694-.854-1.313a13.928,13.928,0,0,0-.843-1.123H19.068V20H15.792V5.657a18.45,18.45,0,0,1,2.215-.294q1.145-.084,2.048-.084a9.015,9.015,0,0,1,5.019,1.165,4.05,4.05,0,0,1,1.743,3.622,4.1,4.1,0,0,1-.7,2.489,4.643,4.643,0,0,1-2.027,1.5q.441.545.924,1.249t.956,1.471q.473.765.913,1.6T27.7,20ZM19.6,8.093c-.189.014-.368.028-.535.042v3.948h.923a5.58,5.58,0,0,0,2.646-.463,1.67,1.67,0,0,0,.8-1.575,1.6,1.6,0,0,0-.808-1.522,5,5,0,0,0-2.384-.452Q19.887,8.072,19.6,8.093Z" transform="translate(-4383.984 -5469.577)" fill="#1c3f83"/><path d="M4151.22,59.9l4.435.676,16.687,9.02-4.133-.075Z" transform="translate(-8587.952 -5529.452)" fill="#fff"/><path d="M4151.5,59.812l3.374.391,16.6,8.664-3.51.053Z" transform="translate(-8582.867 -5529.178)" fill="#fff"/><path d="M4151.5,59.812l3.318.391,16.08,8.588-3.758-.075Z" transform="translate(-8577.786 -5529.178)" fill="#fff"/><path d="M4151.5,59.812l3.032.359,15.019,7.9-3.259.1Z" transform="translate(-8572.832 -5528.902)" fill="#fff"/><path d="M4151.5,59.812l2.947.353,14.571,7.623-3.759-.075Z" transform="translate(-8568.089 -5528.775)" fill="#fff"/><path d="M4151.5,59.812l2.862.336,13.523,7.468-2.426.013Z" transform="translate(-8564.023 -5528.828)" fill="#fff"/><path d="M4152.01,59.709l3.458.451,11.5,6.915-2.48-.15Z" transform="translate(-8559.95 -5528.438)" fill="#fff"/></g></svg>