<svg xmlns="http://www.w3.org/2000/svg" width="326.015" height="60.636" viewBox="0 0 326.015 60.636"><g transform="translate(0 0)"><path d="M4041.23,114.964l-.114-37.6h-5.335l39.178-22.7,114.835,5.42,13.55,8.807-97.9,8.13V115.3l-64.217-.339" transform="translate(-4035.781 -54.667)" fill="#1c3f83"/><path d="M4108.333,82.043l21-2.71v26.761l-21,7.452Z" transform="translate(-4034.603 -54.266)" fill="#1c3f83"/><path d="M4108.333,81.614l17.445-2.281v22.522l-17.445,6.272Z" transform="translate(-4011.229 -56.976)" fill="#1c3f83"/><path d="M4108.5,80.556l13.211-1.423V98.149l-13.38,5.239Z" transform="translate(-3991.413 -58.673)" fill="#1c3f83"/><path d="M4108.335,80.989l11.518-1.155.135,14.939L4108.2,99.244Z" transform="translate(-3975.663 -60.694)" fill="#1c3f83"/><path d="M4108.668,80.848l7.622-.948-.339,11.619-7.384,3.218Z" transform="translate(-3962.615 -61.879)" fill="#1c3f83"/><path d="M4108.336,80.527l6.944-1.194-.508,9.993-6.606,2.541Z" transform="translate(-3953.137 -62.904)" fill="#1c3f83"/><path d="M4108.341,80.313l4.742-.98-.948,7.893-4.269,2.642Z" transform="translate(-3944.842 -63.92)" fill="#1c3f83"/><path d="M4077.875,56.75l9.782,1.143,27.565,16.387-11.051.508Z" transform="translate(-4035.097 -54.633)" fill="#fff"/><path d="M4090.143,57.857l11.6.018,25.7,15.516-9.572.553Z" transform="translate(-4034.898 -54.615)" fill="#fff"/><path d="M4104.715,57.857l7.594.526L4137.234,73.1l-7.966.018Z" transform="translate(-4034.662 -54.615)" fill="#fff"/><path d="M4114.375,58l24.008,14.735,6.733-.127-22.993-14.037Z" transform="translate(-4034.505 -54.612)" fill="#fff"/><path d="M4130.03,59.2l21.531,12.7-5.335.381L4124.25,58.688Z" transform="translate(-4034.344 -54.601)" fill="#fff"/><path d="M4131.333,58.857l5.886.526L4157.8,71.324l-4.764.318Z" transform="translate(-4034.229 -54.598)" fill="#fff"/><path d="M4144.585,59.927l18.355,10.914-4.224.159L4139.25,59.25Z" transform="translate(-4034.101 -54.592)" fill="#fff"/><path d="M4145.75,59.812h2.858l19.245,10.861h-3.747Z" transform="translate(-4033.995 -54.583)" fill="#fff"/><path d="M4151.5,59.812l3.62.445,17.514,9.914-3.478-.006Z" transform="translate(-4034.918 -54.583)" fill="#fff"/><text transform="translate(175.016 25.42)" fill="#1c3f83" font-size="21" font-family="Ubuntu-Bold, Ubuntu" font-weight="700"><tspan x="0" y="0">BROADWAY</tspan></text><text transform="translate(175.016 46.761)" fill="#1c3f83" font-size="21" font-family="Ubuntu-Bold, Ubuntu" font-weight="700"><tspan x="0" y="0">MINI STORAGE</tspan></text><path d="M4151.224,59.9l4.435.676,16.687,9.02-4.133-.075Z" transform="translate(-4028.952 -54.455)" fill="#fff"/><path d="M4151.5,59.812l3.374.391,16.6,8.664-3.51.053Z" transform="translate(-4023.867 -54.181)" fill="#fff"/><path d="M4151.5,59.812l3.318.391,16.08,8.588-3.758-.075Z" transform="translate(-4018.786 -54.181)" fill="#fff"/><path d="M4151.5,59.812l3.032.359,15.019,7.895-3.259.1Z" transform="translate(-4013.832 -53.905)" fill="#fff"/><path d="M4151.5,59.812l2.947.353,14.571,7.623-3.759-.075Z" transform="translate(-4009.089 -53.778)" fill="#fff"/><path d="M4151.5,59.812l2.862.336,13.523,7.468-2.426.013Z" transform="translate(-4005.024 -53.831)" fill="#fff"/><path d="M4152.011,59.709l3.458.451,11.5,6.915-2.48-.15Z" transform="translate(-4000.95 -53.441)" fill="#fff"/></g></svg>