<svg xmlns="http://www.w3.org/2000/svg" width="47.6" height="68" viewBox="0 0 47.6 68"><g transform="translate(-602 -947)"><path d="M28.8,2A23.783,23.783,0,0,0,5,25.8C5,43.65,28.8,70,28.8,70S52.6,43.65,52.6,25.8A23.783,23.783,0,0,0,28.8,2Z" transform="translate(597 945)" fill="#1c3f83"/><path d="M-3376,117a23.781,23.781,0,0,1,23.6,23.8c0,16.886-21.3,41.379-23.6,43.976Z" transform="translate(4001.799 830)" fill="#2965db"/><path d="M13,3H6V21h4V15h3A6,6,0,0,0,13,3Zm.2,8H10V7h3.2a2,2,0,0,1,0,4Z" transform="translate(614 960)" fill="#fff"/></g></svg>