<svg xmlns="http://www.w3.org/2000/svg" width="86.809" height="73.312" viewBox="0 0 86.809 73.312"><g transform="translate(-1091 -774.566)"><g transform="translate(-14.496)"><path d="M-3458.435,144.776l1.964-7.051L-3428,126.479v-3.392h5.355v3.392l-21.777,10.621-1.607,8.212Zm-4.062.158-.5-24.125h1.754l2.5,11.875,21.125-7.625v-2h8.375v2l-29.5,11.25-2.5,8.625Zm3.344-24.125,12.75.25,1.282,5-12.25,3.469Zm57.788-.652c-.3,0-.606,0-.922,0a111.758,111.758,0,0,1-15.147-1.094l.25-6.811h.023c.175,0,1.147-.121,3.109-2.5.387-.47.875-1.111,1.439-1.853,2.563-3.372,6.855-9.018,10.326-9.761a28.7,28.7,0,0,1,5.553-.4c4.141,0,8.582.4,8.625.4l-1.357,10.709L-3395.5,119.4c.063.03.2.106.178.2-.042.208-.884.558-6.039.558Zm-4.726-17.6c-.609.028-1.1.84-1.125.875-.106.257-2.6,6.328-2.75,8.781l-.007.1c-.046.659-.046.659.061.7a.546.546,0,0,1,.165.1,55.475,55.475,0,0,0,8.773,1.009,4.179,4.179,0,0,0,1.6-.166,3.068,3.068,0,0,0,1.688-1.468c1.757-4.037,2.7-8.5,2.247-9.315a.215.215,0,0,0-.154-.123c-.814-.115-7.542-.509-9.97-.509C-3405.776,102.55-3405.956,102.552-3406.091,102.559Zm-31.659,17.512.438-2.776a5.256,5.256,0,0,0,5.333-.584c2.406-1.805,2-2.2,1.913-2.257l7.583,4.083v1.534Zm-10.83-16.637c-1.833-1.583-1-6.833-1-6.833l31,15.666V119.1S-3446.746,105.017-3448.58,103.433Zm11.268,12.694a9.542,9.542,0,0,1-3.228-6.867l9.51,4.748s-1.675,3.179-4,3.179A3.286,3.286,0,0,1-3437.312,116.127Zm7.232-1.68.013.007Zm41.519-3.193,1.659-2.715V98.131h10.709l-10.709,13.123Zm-31.978-3.469c-4.073-1.659-42.539-20.514-42.462-22.172s1.735-13.425,4.9-13.576,19.609.15,23.833,1.357,54.754,23.531,54.754,23.531-14.027-1.206-20.363-1.81-14.33,11.615-15.234,12.67a2.108,2.108,0,0,1-1.778,1.031A10.841,10.841,0,0,1-3420.538,107.784Zm-40.374-12.6s0-3.334.416-3.667,9.25,4.917,9.25,4.917v4.416Z" transform="translate(4568.496 702.566)" fill="#2965db"/><path d="M-3435.938,168.342l1.964-7.051,28.471-11.245v-3.392h2.5v4.783l-18.925,9.23-1.607,8.212Zm-4.062.158-.5-24.124h1.754l2.5,11.875,21.125-7.625v-2h8.375v2l-29.5,11.25-2.5,8.625Zm3.344-24.124,12.75.25,1.281,5-12.25,3.469Zm21.4-.738.438-2.776a5.256,5.256,0,0,0,5.333-.584c2.406-1.805,2-2.2,1.913-2.257l4.57,2.461v3.156Zm.438-3.944a9.541,9.541,0,0,1-3.227-6.867l9.509,4.748s-1.676,3.179-4,3.179A3.287,3.287,0,0,1-3414.815,139.693ZM-3426.083,127c-1.833-1.583-1-6.833-1-6.833L-3403,132.338v6.849C-3411.466,134.907-3424.839,128.075-3426.083,127Zm18.5,11.013.013.007Zm-32.921-28.835c.076-1.66,1.735-13.425,4.9-13.576s19.609.15,23.833,1.357c.949.271,4.239,1.609,8.768,3.521V129.06C-3414.474,123.581-3440.567,110.545-3440.5,109.178Zm2.088,9.572s0-3.334.416-3.667,9.25,4.917,9.25,4.917v4.416Z" transform="translate(4546 679)" fill="#1c3f83"/></g></g></svg>